<svg width="80" height="31" viewBox="0 0 80 31" fill="none" xmlns="http://www.w3.org/2000/svg">
<g clip-path="url(#clip0_1235_5414)">
<path d="M27.7656 0.880127L23.8205 23.6424H18.9897L22.9491 0.880127H27.7656Z" fill="#3B49DB"/>
<path d="M34.3039 20.7343L40.3347 6.51274H45.4369L37.2919 23.7077H30.404L28.2446 6.51274H33.2182L34.3039 20.7343Z" fill="#3B49DB"/>
<path d="M52.727 19.8334L58.4363 6.52723L58.434 6.52481H63.4647L55.734 23.7052C54.4769 26.4684 52.877 28.2847 50.939 29.1494C49.0009 30.0141 46.5677 30.4465 43.644 30.4465L44.2154 27.1568C46.1867 27.1568 47.6962 26.9394 48.739 26.5046C49.77 26.0747 50.6128 25.1424 51.2675 23.7077H48.4176L46.5748 6.52723L51.6056 6.51274L52.727 19.8334Z" fill="#3B49DB"/>
<path d="M72.7288 13.312C74.8049 13.6115 76.3501 14.1187 77.3596 14.8336H77.3572C78.3667 15.551 78.7477 16.7683 78.5 18.4881C78.2334 20.3165 77.2501 21.6522 75.5501 22.4976C73.8502 23.3429 71.8788 23.8115 69.6408 23.8115C67.4028 23.8115 65.5767 23.4202 64.1672 22.7294C62.7577 22.0362 61.972 20.8599 61.8101 19.1982L66.2838 17.6475C66.3409 18.6137 66.6981 19.3407 67.3552 19.8286C68.0123 20.3165 68.9456 20.5604 70.1551 20.5604C71.2217 20.5604 72.0622 20.3938 72.6764 20.0605C73.2907 19.7271 73.6359 19.29 73.7121 18.7489C73.8264 18.034 73.4264 17.563 72.5121 17.3359C71.5979 17.1089 70.3575 16.8553 68.7956 16.5751C66.8695 16.3046 65.4124 15.7853 64.4219 15.0172C63.4315 14.2491 63.0601 12.998 63.3077 11.2686C63.5458 9.5561 64.4815 8.3001 66.1148 7.4982C67.748 6.6963 69.7027 6.29535 71.9812 6.29535C74.2597 6.29535 76.0287 6.65283 77.3667 7.3243C78.7072 7.99576 79.3976 9.1672 79.6 10.7469L75.1263 12.283C75.0501 11.4135 74.693 10.7324 74.055 10.2396C73.4169 9.7469 72.5502 9.5005 71.455 9.5005C70.4265 9.5005 69.6194 9.6599 69.0337 9.9788C68.448 10.2976 68.1218 10.7324 68.0552 11.2831C67.9504 11.9787 68.3337 12.4352 69.2051 12.6526C70.0789 12.87 71.2527 13.0897 72.7288 13.312Z" fill="#3B49DB"/>
<path fill-rule="evenodd" clip-rule="evenodd" d="M15.2949 6.42018L14.1116 7.68582C13.9783 7.5723 12.1831 6.05063 8.83564 6.16656C6.51194 6.24627 4.63814 6.86219 3.31679 8.41768C1.99541 9.9756 1.15258 12.06 0.669263 14.8232C0.195473 17.5743 0.347843 19.736 1.12639 21.306C1.90255 22.8784 3.45488 23.8107 5.78104 23.8107C7.83564 23.8107 9.65464 23.1441 11.2308 22.1055C11.2858 22.0697 11.3366 22.0331 11.3872 21.9966C11.422 21.9716 11.4568 21.9465 11.4927 21.9219L11.2093 23.5595H16.1163L19.0734 6.42018H15.2949ZM7.51904 20.2988C6.49054 20.2988 5.77864 19.9365 5.30724 19.2119C4.83344 18.4873 4.79054 17.0284 5.17624 14.8353C5.55244 12.6615 6.22864 11.333 6.95234 10.6036C7.67614 9.8741 8.31664 9.5022 9.30944 9.3862C11.8236 9.0916 13.2688 10.8185 13.0378 12.3426L12.1807 17.2796C11.5927 19.7892 8.54754 20.2988 7.51664 20.2988H7.51904Z" fill="#3B49DB"/>
</g>
<defs>
<clipPath id="clip0_1235_5414">
<rect width="80" height="31" fill="white"/>
</clipPath>
</defs>
</svg>
