<svg width="157" height="34" viewBox="0 0 157 34" fill="none" xmlns="http://www.w3.org/2000/svg">
<path d="M143.719 28.9624C144.83 28.9624 145.833 28.6939 146.727 28.1569C147.622 27.5882 148.741 26.8142 149.358 25.8349C150.006 24.824 150.575 23.6393 150.884 22.2809C151.223 20.9225 151.575 17.7253 151.575 16.1457C151.575 14.5346 151.223 13.0656 150.884 11.7388C150.575 10.3804 150.006 9.21149 149.358 8.23217C148.741 7.22126 147.895 6.44728 147 5.91023C146.105 5.34159 144.947 4.96631 143.719 4.96631C141.855 4.96631 140.832 5.61448 139.938 6.18311C139.689 6.33235 139.224 6.68569 139.224 6.68569C138.762 4.96631 136.988 2.05689 136.988 2.05689C137.381 1.79125 137.789 1.54789 138.213 1.32682C139.848 0.442274 141.683 0 143.719 0C145.755 0 147.591 0.442274 149.226 1.32682C150.861 2.17978 152.249 3.36444 153.391 4.88081C154.563 6.39718 155.457 8.19787 156.074 10.2829C156.691 12.3363 157 14.5635 157 16.9644C157 19.3653 156.691 21.6082 156.074 23.6933C155.457 25.7467 154.563 27.5316 153.391 29.0479C152.249 30.5643 150.861 31.7648 149.226 32.6493C147.591 33.5023 145.755 33.9287 143.719 33.9287V28.9624Z" fill="#4285F4"/>
<path d="M143.72 33.9287C141.684 33.9287 139.848 33.5023 138.213 32.6493C136.578 31.7648 135.175 30.5643 134.002 29.0479C132.861 27.5316 131.982 25.7467 131.365 23.6933C131.08 22.7326 130.774 21.858 130.621 20.8302C130.621 20.8302 130.382 19.4054 130.326 17.6921C130.24 15.0566 130.402 11.4556 130.326 10.1537C130.326 9.11109 129.532 7.3075 128.711 6.54925C127.801 5.68511 126.795 4.95742 125.002 4.95742C123.208 4.95742 122.178 5.76873 121.389 6.59017C120.429 7.54983 120.081 8.58546 119.797 9.59647L114.888 7.51507C115.141 6.66204 115.552 5.7932 116.12 4.90857C116.689 3.99234 117.416 3.18669 118.3 2.49162C119.185 1.76496 119.955 1.18047 121.155 0.738149C122.387 0.264239 123.762 0.0272827 125.278 0.0272827C126.921 0.0272827 127.935 0.161174 129.187 0.785541C130.439 1.40991 131.363 1.92293 132.279 2.77597C133.116 3.55526 133.934 4.46639 134.454 5.50935C134.782 6.0518 135.215 6.95815 135.488 8.27752C135.499 8.33461 135.511 8.39322 135.521 8.45323C135.572 8.72065 135.606 8.99221 135.619 9.26796C135.68 10.0282 135.682 10.9002 135.682 11.7388V16.1457C135.682 17.0567 135.734 18.5056 135.913 19.8297C136.045 20.8015 136.287 21.7059 136.418 22.2809C136.757 23.6393 137.417 24.824 138.034 25.8349C138.651 26.8142 139.589 27.5882 140.484 28.1569C141.378 28.6939 142.578 28.9624 143.72 28.9624V33.9287Z" fill="#34A853"/>
<path d="M126.078 14.0952C126.123 14.1229 126.168 14.1506 126.213 14.1783C126.213 14.3817 126.213 14.5852 126.213 14.7887C126.215 15.6942 126.18 16.6015 126.226 17.5047C126.288 18.6997 126.41 19.8918 126.513 21.0845C126.532 21.3036 126.51 21.4843 126.354 21.6641C124.417 23.8995 122.545 26.1897 120.653 28.4628L128.434 28.498C128.658 28.4964 128.784 28.5832 128.879 28.7714C129.728 30.4519 130.864 31.9031 132.11 33.2981C124.74 33.2981 117.432 33.2981 110.064 33.2981L126.078 14.0952Z" fill="#FBBC07"/>
<path d="M105.869 33.201V7.08319L99.8761 9.59646L97.8604 5.14934L107.386 0.69458H111.168V26.8792L105.869 33.201Z" fill="#EA4335"/>
<path d="M87.8733 30.4722H87.7327C87.052 31.3212 85.645 32.4127 84.6684 33.0191C83.7214 33.6255 82.4933 33.9287 80.984 33.9287C79.8594 33.9287 78.4302 33.7317 77.424 33.3375C76.4474 32.9736 75.5891 32.4582 74.8493 31.7911C74.1095 31.1241 73.5324 30.3206 73.1181 29.3807C72.7037 28.4407 72.4966 27.4098 72.4966 26.288C72.4966 25.1358 72.7185 24.1049 73.1624 23.1953C73.6064 22.2553 74.2278 21.4518 75.0269 20.7848C75.8259 20.1177 76.7581 19.6174 77.8235 19.2839C78.9185 18.9201 80.8299 18.8291 82.1025 18.8291C83.523 18.8291 84.6919 18.9504 85.6093 19.1929C86.5268 19.4052 87.2814 19.7235 87.8733 19.9661V19.1929C87.8733 18.0104 87.2324 16.4641 86.1408 15.7364C84.9129 14.9177 83.7273 14.5084 82.3659 14.5084C80.3535 14.5084 78.5001 15.3725 77.0902 17.3282L73.0293 14.6448C75.3376 11.6734 78.4894 10.1877 82.4845 10.1877C85.8583 10.1877 88.4329 11.0064 90.2086 12.6437C91.9842 14.2507 92.872 16.646 92.872 19.8297V33.201H87.8733V30.4722ZM87.8733 23.9229C87.1926 23.5894 86.1185 23.1043 85.3787 22.9224C84.6684 22.7101 83.5203 22.604 82.6621 22.604C81.2712 22.604 79.5543 23.2862 78.7848 23.9229C78.045 24.5294 77.6751 25.3783 77.6751 26.288C77.6751 27.1976 77.9802 28.1072 78.7404 28.7439C79.5006 29.3807 80.9605 29.8355 81.9075 29.8355C82.6769 29.8355 83.3872 29.6081 84.0382 29.3352C84.6893 29.032 85.4187 28.653 85.8626 28.1982C86.3361 27.713 86.9641 27.1673 87.2009 26.5608C87.4672 25.9241 87.8733 24.59 87.8733 23.9229Z" fill="#5F6368"/>
<path d="M69.6313 27.9707C68.6004 29.79 67.3773 31.1241 65.6187 32.246C63.8904 33.3678 61.8589 33.9287 59.3423 33.9287C57.6444 33.9287 56.0677 33.6407 54.6123 33.0646C53.1872 32.4582 52.0351 31.6244 50.9738 30.5632C49.9126 29.5019 49.1698 28.2588 48.5634 26.8337C47.9873 25.3783 47.6992 23.7865 47.6992 22.0582C47.6992 20.4512 47.9873 18.9352 48.5634 17.5101C49.1394 16.0548 49.852 14.7965 50.8829 13.7352C51.9138 12.6437 53.0356 11.7796 54.4304 11.1428C55.8555 10.5061 57.417 10.1877 59.1149 10.1877C60.9038 10.1877 62.4047 10.4909 63.7995 11.0973C65.1942 11.6734 66.2706 12.4921 67.2105 13.5533C68.1505 14.5842 68.863 15.8122 69.3481 17.2373C69.8332 18.6623 70.0758 20.1177 70.0758 21.7853C70.0758 21.9976 70.0758 22.1795 70.0758 22.3311C70.0455 22.513 70.0303 22.6798 70.0303 22.8314C70 22.983 69.9849 23.0588 69.9849 23.2407H52.8386C52.9598 24.1504 53.2024 25.3025 53.5663 25.9696C53.9604 26.6063 54.5214 27.425 55.0671 27.8798C55.6432 28.3043 56.7196 28.8955 57.3866 29.1078C58.0537 29.2897 58.7359 29.3807 59.4333 29.3807C60.7977 29.3807 61.8286 29.1684 62.7079 28.562C63.6175 27.9253 64.8407 26.7276 65.3561 25.7877L69.6313 27.9707ZM64.9365 19.2839C64.9062 18.8897 64.7697 18.3591 64.5271 17.874C64.3149 17.3889 63.9814 16.7521 63.5266 16.3276C63.1021 15.9032 62.5563 15.4635 61.8893 15.1906C61.2525 14.9177 60.0245 14.5084 59.1149 14.5084C57.8415 14.5084 56.2648 15.0542 55.2945 15.7819C54.3243 16.5096 53.5663 17.965 53.2479 19.2839H64.9365Z" fill="#5F6368"/>
<path d="M32.5562 10.9154H37.4226V14.0081V14.4174C37.6955 13.8717 38.4232 12.9621 38.878 12.5072C39.3328 12.0524 39.8331 11.6583 40.3789 11.3247C40.955 10.9912 41.5614 10.7335 42.1981 10.5516C42.8652 10.3696 43.517 10.2787 44.1538 10.2787C44.9421 10.2787 45.6092 10.3545 46.1549 10.5061C46.731 10.6577 47.0424 10.8093 47.4366 11.0519L45.8902 15.5999C45.5264 15.418 44.9724 15.3725 44.5176 15.2816C44.0931 15.1603 43.5625 15.1906 42.9258 15.1906C42.1071 15.1906 41.3643 15.5393 40.6972 15.8728C40.0302 16.176 39.4541 16.8886 38.969 17.4647C38.5141 18.0407 38.2413 18.632 37.9684 19.4203C37.7258 20.1784 37.6955 21.376 37.6955 22.2856V33.201H32.5562V10.9154Z" fill="#5F6368"/>
<path d="M18.2378 0.636734H12.2344L0 33.201H5.86703L15.0997 6.68569H15.3271L17.0098 11.6431L20.0116 20.1935H14.0991L12.3253 24.878H21.6944L24.6052 33.201H30.4722L18.2378 0.636734Z" fill="#5F6368"/>
</svg>
