<svg width="167" height="30" viewBox="0 0 167 30" fill="none" xmlns="http://www.w3.org/2000/svg">
<g clip-path="url(#clip0_36_575)">
<path d="M50.2391 23.5318V6.42395H55.0123C56.1053 6.42395 57.0644 6.62469 57.9343 6.98157C58.8265 7.33845 59.6294 7.87376 60.254 8.54291C60.9008 9.23436 61.4138 10.0373 61.7707 10.9964C62.1276 11.9555 62.2837 13.0039 62.2837 14.2083V15.7697C62.2837 16.9295 62.1276 18.0225 61.7707 18.9816C61.4138 19.9407 60.8785 20.7436 60.254 21.4351C59.6294 22.1265 58.8042 22.6396 57.9343 22.9964C57.0198 23.3533 56.0161 23.5541 54.9231 23.5541H50.2168V23.5318H50.2391ZM51.6889 7.67301V22.3273H54.9454C55.8599 22.3273 56.6629 22.1712 57.4436 21.8366C58.1573 21.5243 58.8042 21.0782 59.3395 20.5206C59.8525 19.963 60.254 19.2269 60.5439 18.4239C60.8339 17.621 60.9454 16.7288 60.9454 15.7697V14.1637C60.9454 13.16 60.7893 12.2678 60.4993 11.4648C60.2094 10.6619 59.8079 9.97042 59.2949 9.4128C58.7819 8.85518 58.1796 8.40908 57.4436 8.09681C56.7298 7.78454 55.9268 7.6061 55.0346 7.6061H51.7112V7.67301H51.6889ZM64.0235 16.9964C64.0235 16.0819 64.135 15.2344 64.425 14.4314C64.7149 13.6284 65.0718 12.9816 65.5848 12.3793C66.0755 11.8217 66.6778 11.3756 67.3915 11.0634C68.083 10.7511 68.8859 10.5726 69.7112 10.5726C70.6034 10.5726 71.3618 10.7288 72.0755 11.0634C72.767 11.3756 73.3692 11.8217 73.8822 12.3793C74.3729 12.937 74.7744 13.6284 74.9975 14.4314C75.2874 15.2344 75.399 16.0819 75.399 16.9964V17.3979C75.399 18.3124 75.2874 19.16 74.9975 19.963C74.7075 20.766 74.3506 21.4128 73.8822 22.015C73.3915 22.5727 72.7893 23.0187 72.0755 23.331C71.3841 23.6433 70.5811 23.8217 69.7558 23.8217C68.9306 23.8217 68.1053 23.6656 67.4361 23.331C66.7447 23.0187 66.1424 22.5727 65.6294 22.015C65.1387 21.4574 64.7372 20.766 64.4696 19.963C64.1796 19.16 64.0681 18.3124 64.0681 17.3979V16.9964H64.0235ZM65.4287 17.3979C65.4287 18.0894 65.5179 18.7585 65.7187 19.4054C65.9194 20.0522 66.2094 20.5652 66.5662 21.0559C66.9231 21.5466 67.3692 21.9035 67.8822 22.1712C68.3952 22.4611 69.0421 22.6173 69.7335 22.6173C70.425 22.6173 71.0272 22.4611 71.5848 22.1712C72.0978 21.8812 72.5439 21.5243 72.9008 21.0559C73.2577 20.5652 73.5477 20.0076 73.7484 19.4054C73.9491 18.7585 74.0384 18.1117 74.0384 17.3979V16.9964C74.0384 16.305 73.9491 15.6804 73.7484 15.0336C73.5477 14.3868 73.2577 13.8292 72.9008 13.3831C72.5439 12.8924 72.0978 12.5355 71.5402 12.2232C71.0272 11.9332 70.3804 11.7771 69.6889 11.7771C68.9975 11.7771 68.3952 11.9332 67.8822 12.2232C67.3692 12.5132 66.9231 12.9147 66.5662 13.3831C66.2094 13.8738 65.9194 14.4314 65.7187 15.0336C65.5179 15.6804 65.4287 16.3273 65.4287 16.9964V17.3979ZM85.7484 21.9258C85.3469 22.4834 84.8339 22.9741 84.1424 23.2864C83.451 23.5987 82.648 23.7771 81.6889 23.7771C81.0421 23.7771 80.4845 23.6879 79.9937 23.4871C79.4807 23.331 79.0346 23.0411 78.6778 22.6396C78.3209 22.2381 78.0309 21.7474 77.8302 21.1451C77.6294 20.5429 77.5402 19.7845 77.5402 18.937V10.7957H78.9454V18.9816C78.9454 19.673 79.0346 20.2306 79.1908 20.6767C79.3469 21.1228 79.5476 21.4797 79.8376 21.7697C80.1276 22.0596 80.3952 22.2604 80.7521 22.3719C81.109 22.4834 81.4659 22.528 81.8674 22.528C82.425 22.528 82.9157 22.4388 83.3618 22.3273C83.8079 22.2158 84.1648 22.015 84.477 21.8143C84.7893 21.5689 85.0346 21.3236 85.2354 21.0113C85.4361 20.699 85.5923 20.3645 85.7261 20.0076V10.818H87.1313V23.5541H85.7707L85.7484 21.9258ZM100.47 17.3087C100.47 18.2678 100.358 19.16 100.157 19.9184C99.9566 20.7213 99.6443 21.4128 99.1982 21.9704C98.7967 22.528 98.2837 22.9741 97.6815 23.2864C97.0792 23.5987 96.3878 23.7771 95.6294 23.7771C94.7149 23.7771 93.912 23.621 93.2205 23.2641C92.5291 22.9072 92.0161 22.4165 91.57 21.8143L91.5254 23.5318H90.2317V5.46484H91.6369V12.647C92.083 12.0002 92.596 11.4871 93.2428 11.1303C93.8897 10.7734 94.6926 10.5726 95.6071 10.5726C96.3655 10.5726 97.1016 10.7288 97.7038 11.0187C98.306 11.331 98.819 11.7325 99.2205 12.3347C99.622 12.8924 99.9343 13.5838 100.18 14.3868C100.38 15.1898 100.492 16.0819 100.492 17.0857V17.331H100.47V17.3087ZM99.0644 17.0634C99.0644 16.3496 98.9752 15.6135 98.8636 14.9667C98.7075 14.3199 98.5068 13.7622 98.1722 13.2715C97.8599 12.7808 97.4807 12.424 97.0123 12.1563C96.5439 11.8886 95.964 11.7548 95.3172 11.7548C94.8042 11.7548 94.3134 11.844 93.912 11.9555C93.5105 12.1117 93.1536 12.2678 92.8636 12.5132C92.5737 12.7585 92.306 13.0262 92.1053 13.3607C91.9045 13.673 91.7484 14.0076 91.6146 14.3199V20.0522C91.7707 20.3645 91.9268 20.699 92.1722 21.0113C92.4175 21.3013 92.6629 21.5689 92.9752 21.7697C93.2874 21.9704 93.622 22.1712 94.0235 22.2827C94.425 22.3942 94.8711 22.4834 95.3395 22.4834C95.9863 22.4834 96.5439 22.3719 96.99 22.0819C97.4807 21.792 97.8376 21.4351 98.1499 20.9667C98.4622 20.476 98.6629 19.9184 98.8413 19.3161C98.9975 18.6693 99.0421 18.0002 99.0421 17.2195L99.0644 17.0634ZM104.328 23.5318H102.923V5.46484H104.328V23.5318ZM112.559 23.7771C111.711 23.7771 110.953 23.621 110.261 23.2864C109.57 22.9518 108.968 22.5726 108.455 21.9927C107.942 21.4351 107.563 20.7883 107.295 20.0299C107.005 19.2715 106.849 18.4239 106.849 17.5318V17.0187C106.849 16.0596 107.005 15.1228 107.295 14.3645C107.585 13.5615 107.986 12.8701 108.499 12.3124C108.99 11.7548 109.592 11.3087 110.217 11.0187C110.864 10.7065 111.577 10.5726 112.313 10.5726C113.116 10.5726 113.83 10.7288 114.477 11.0187C115.124 11.3087 115.637 11.7102 116.038 12.2232C116.44 12.7362 116.797 13.3384 116.997 14.0745C117.198 14.7883 117.31 15.5689 117.31 16.3942V17.2418H108.232V17.5318C108.232 18.2232 108.343 18.8923 108.544 19.4946C108.745 20.0968 109.057 20.6544 109.436 21.1005C109.838 21.5466 110.284 21.9035 110.797 22.1935C111.31 22.4834 111.912 22.595 112.559 22.595C113.317 22.595 113.964 22.4834 114.566 22.1935C115.124 21.9035 115.659 21.4797 116.128 20.8775L117.02 21.5689C116.819 21.8812 116.574 22.1712 116.306 22.4611C116.016 22.7511 115.704 22.9741 115.347 23.1749C114.99 23.3756 114.544 23.5318 114.098 23.6656C113.652 23.7325 113.116 23.7771 112.559 23.7771ZM112.291 11.7771C111.778 11.7771 111.243 11.8886 110.797 12.0894C110.351 12.2901 109.949 12.5801 109.592 12.9816C109.235 13.3385 108.945 13.8292 108.745 14.3422C108.499 14.8552 108.388 15.4574 108.299 16.1043H115.927V15.9481C115.927 15.4351 115.815 14.8998 115.681 14.3868C115.525 13.8961 115.28 13.4723 114.99 13.0708C114.678 12.6693 114.299 12.3793 113.875 12.1563C113.406 11.8886 112.893 11.7771 112.291 11.7771ZM132.165 18.2009C132.076 19.0931 131.875 19.8515 131.563 20.5206C131.25 21.2121 130.849 21.8143 130.313 22.2827C129.8 22.7734 129.154 23.1303 128.418 23.3756C127.704 23.621 126.856 23.7771 125.897 23.7771C124.938 23.7771 124.046 23.5764 123.243 23.2195C122.44 22.8626 121.748 22.3273 121.191 21.6581C120.633 20.9667 120.187 20.1637 119.875 19.2046C119.563 18.2455 119.429 17.1972 119.429 16.0819V13.9184C119.429 12.7585 119.585 11.7102 119.875 10.7511C120.187 9.79198 120.589 8.98901 121.191 8.29756C121.748 7.60611 122.44 7.0931 123.243 6.73622C124.046 6.37934 124.96 6.1786 125.964 6.1786C126.879 6.1786 127.681 6.29012 128.418 6.53547C129.131 6.78083 129.778 7.13771 130.313 7.62842C130.826 8.11912 131.228 8.72134 131.563 9.39049C131.875 10.0819 132.076 10.8849 132.165 11.7548H130.715C130.626 11.0634 130.47 10.4388 130.224 9.9035C129.979 9.34588 129.711 8.89979 129.31 8.54291C128.908 8.18603 128.462 7.89607 127.905 7.69533C127.347 7.49458 126.7 7.40537 125.986 7.40537C125.183 7.40537 124.47 7.56149 123.867 7.89606C123.221 8.20833 122.708 8.65443 122.261 9.21205C121.815 9.76967 121.503 10.4611 121.258 11.2641C121.012 12.0671 120.901 12.9593 120.901 13.9184V16.0819C120.901 16.9964 121.012 17.8886 121.213 18.6916C121.414 19.4946 121.726 20.186 122.172 20.7437C122.618 21.3013 123.131 21.792 123.734 22.1042C124.336 22.4165 125.05 22.595 125.852 22.595C127.369 22.595 128.507 22.2381 129.265 21.502C130.023 20.7883 130.514 19.6953 130.67 18.2455H132.165V18.2009ZM136.291 23.5318H134.886V5.46484H136.291V23.5318ZM139.748 7.16001C139.748 6.87004 139.838 6.6693 139.994 6.46856C140.15 6.26782 140.395 6.1786 140.708 6.1786C141.02 6.1786 141.221 6.26782 141.421 6.46856C141.577 6.6693 141.711 6.87004 141.711 7.16001C141.711 7.44997 141.622 7.65072 141.421 7.85146C141.265 8.0076 141.02 8.14142 140.708 8.14142C140.395 8.14142 140.194 8.05221 139.994 7.85146C139.815 7.62842 139.748 7.38305 139.748 7.16001ZM141.399 23.5318H139.994V10.7957H141.399V23.5318ZM149.228 22.5727C149.674 22.5727 150.12 22.4834 150.522 22.3719C150.923 22.2604 151.28 22.0596 151.615 21.8143C151.927 21.5689 152.217 21.2567 152.418 20.8998C152.618 20.5429 152.73 20.0968 152.774 19.6061H154.135C154.09 20.2083 153.934 20.766 153.689 21.3013C153.399 21.8143 153.042 22.2604 152.596 22.6173C152.15 22.9741 151.637 23.2641 151.079 23.5094C150.522 23.7102 149.875 23.8217 149.228 23.8217C148.336 23.8217 147.533 23.6656 146.864 23.331C146.172 23.0187 145.615 22.5727 145.168 21.9704C144.722 21.4128 144.365 20.7214 144.12 19.963C143.875 19.2046 143.763 18.357 143.763 17.4648V16.9741C143.763 16.0819 143.875 15.2567 144.12 14.476C144.365 13.7176 144.678 13.0262 145.168 12.4686C145.615 11.9109 146.172 11.4648 146.864 11.108C147.555 10.7957 148.313 10.6173 149.183 10.6173C149.875 10.6173 150.499 10.7288 151.079 10.9295C151.681 11.1303 152.172 11.4425 152.596 11.844C153.042 12.2455 153.354 12.7362 153.644 13.2938C153.89 13.8515 154.046 14.4983 154.09 15.1897H152.73C152.685 14.6767 152.574 14.2306 152.418 13.7845C152.217 13.3831 151.971 13.0262 151.659 12.7362C151.347 12.4463 150.968 12.2232 150.544 12.0448C150.142 11.8886 149.652 11.7994 149.183 11.7994C148.47 11.7994 147.823 11.9555 147.332 12.2455C146.819 12.5355 146.418 12.937 146.083 13.3607C145.771 13.8515 145.525 14.4091 145.392 15.0113C145.235 15.6135 145.191 16.305 145.191 16.9295V17.4202C145.191 18.1117 145.28 18.7362 145.392 19.3831C145.503 20.0299 145.748 20.5429 146.083 21.0336C146.395 21.5243 146.797 21.8812 147.332 22.1489C147.845 22.4611 148.447 22.5727 149.228 22.5727ZM159.466 17.1526L157.86 18.7139V23.5764H156.455V5.50946H157.86V17.0634L159.176 15.6135L164.038 10.8403H165.8L160.425 16.2381L166.291 23.5764H164.596L159.466 17.1526Z" fill="#616161"/>
<path d="M23.1835 0C21.8898 0 20.663 0.156137 19.4586 0.490709C25.8378 2.14127 30.5887 7.8736 30.7002 14.6989V15.2788C30.5441 19.2937 27.1984 22.5056 23.1835 22.5056C21.8229 22.5056 20.5292 22.1487 19.4586 21.5019C17.2058 20.2082 15.7114 17.7993 15.7114 14.9889C15.7114 12.1784 17.2281 9.81413 19.4363 8.47584C18.3433 7.829 17.072 7.47212 15.7114 7.47212C11.6519 7.47212 8.37309 10.684 8.23926 14.6989V15.2788C8.35078 22.1487 13.1017 27.881 19.4809 29.487C20.6854 29.7993 21.9344 29.9777 23.2058 29.9777C31.4809 29.9777 38.1723 23.2639 38.1723 15.0111C38.1723 6.71375 31.4586 0 23.1835 0Z" fill="#369647"/>
<path d="M30.6556 14.6989C30.5441 7.82899 25.7931 2.09666 19.414 0.490709C18.2095 0.178441 16.9604 0 15.689 0C7.41395 0 0.700195 6.71376 0.700195 14.9889C0.700195 23.2639 7.41395 29.9554 15.6667 29.9554C16.9604 29.9554 18.1872 29.7993 19.3916 29.4647C13.0571 27.8141 8.30614 22.1264 8.19462 15.2565V14.6766C8.35075 10.6617 11.6519 7.44981 15.6667 7.44981C17.0273 7.44981 18.321 7.80668 19.3916 8.45352C21.6444 9.74721 23.1166 12.1561 23.1166 14.9665C23.1166 17.7769 21.5998 20.1413 19.3916 21.4796C20.5069 22.0818 21.8006 22.4833 23.1612 22.4833C27.2206 22.4833 30.4995 19.2714 30.6333 15.2565V14.9665C30.6556 14.8996 30.6556 14.7881 30.6556 14.6989Z" fill="#AEEA00"/>
<path opacity="0.15" d="M30.6556 14.6989C30.5441 7.82899 25.7931 2.09666 19.414 0.490709C18.2095 0.178441 16.9604 0 15.689 0C7.41395 0 0.700195 6.71376 0.700195 14.9889C0.700195 23.2639 7.41395 29.9554 15.6667 29.9554C16.9604 29.9554 18.1872 29.7993 19.3916 29.4647C13.0571 27.8141 8.30614 22.1264 8.19462 15.2565V14.6766C8.35075 10.6617 11.6519 7.44981 15.6667 7.44981C17.0273 7.44981 18.321 7.80668 19.3916 8.45352C21.6444 9.74721 23.1166 12.1561 23.1166 14.9665C23.1166 17.7769 21.5998 20.1413 19.3916 21.4796C20.5069 22.0818 21.8006 22.4833 23.1612 22.4833C27.2206 22.4833 30.4995 19.2714 30.6333 15.2565V14.9665C30.6556 14.8996 30.6556 14.7881 30.6556 14.6989Z" fill="url(#paint0_linear_36_575)"/>
<path opacity="0.15" d="M23.1835 0C21.8898 0 20.663 0.156137 19.4586 0.490709C25.8378 2.14127 30.5887 7.8736 30.7002 14.6989V15.2788C30.5441 19.2937 27.1984 22.5056 23.1835 22.5056C21.8229 22.5056 20.5292 22.1487 19.4586 21.5019C17.2058 20.2082 15.7114 17.7993 15.7114 14.9889C15.7114 12.1784 17.2281 9.81413 19.4363 8.47584C18.3433 7.829 17.072 7.47212 15.7114 7.47212C11.6519 7.47212 8.37309 10.684 8.23926 14.6989V15.2788C8.35078 22.1487 13.1017 27.881 19.4809 29.487C20.6854 29.7993 21.9344 29.9777 23.2058 29.9777C31.4809 29.9777 38.1723 23.2639 38.1723 15.0111C38.1723 6.71375 31.4586 0 23.1835 0Z" fill="url(#paint1_linear_36_575)"/>
<path opacity="0.4" d="M19.4138 29.4872C13.0793 27.8366 8.32832 22.1489 8.2168 15.279V15.2344V15.3459C8.30602 21.1675 10.3804 26.3422 13.6369 29.844C14.3283 29.9333 14.9975 30.0002 15.6889 30.0002C16.9603 29.9556 18.254 29.7994 19.4138 29.4872Z" fill="url(#paint2_linear_36_575)"/>
<path opacity="0.25" d="M8.28393 14.7434C9.44378 10.8846 13.4586 8.63184 17.4066 9.72477C17.5181 9.76938 17.6966 9.81399 17.8081 9.8363C18.2988 9.32329 18.8564 8.8772 19.4586 8.52032C18.3657 7.87348 17.0943 7.5166 15.7337 7.5166C11.6743 7.5166 8.39545 10.7285 8.28393 14.7434L8.26162 14.9887C8.21701 14.8995 8.23932 14.8103 8.28393 14.7434Z" fill="url(#paint3_linear_36_575)"/>
</g>
<defs>
<linearGradient id="paint0_linear_36_575" x1="15.6777" y1="0.0864981" x2="15.6777" y2="29.9471" gradientUnits="userSpaceOnUse">
<stop stop-opacity="0.6"/>
<stop offset="0.6" stop-opacity="0.1"/>
</linearGradient>
<linearGradient id="paint1_linear_36_575" x1="23.2056" y1="29.8054" x2="23.2056" y2="-0.0291299" gradientUnits="userSpaceOnUse">
<stop stop-opacity="0.6"/>
<stop offset="0.6" stop-opacity="0.1"/>
</linearGradient>
<linearGradient id="paint2_linear_36_575" x1="11.8602" y1="17.8143" x2="16.9443" y2="34.1625" gradientUnits="userSpaceOnUse">
<stop stop-opacity="0.5"/>
<stop offset="0.75" stop-opacity="0.03"/>
</linearGradient>
<linearGradient id="paint3_linear_36_575" x1="8.82522" y1="11.2525" x2="23.5168" y2="11.2525" gradientUnits="userSpaceOnUse">
<stop stop-opacity="0.9"/>
<stop offset="0.6" stop-opacity="0.1"/>
</linearGradient>
<clipPath id="clip0_36_575">
<rect width="165.6" height="30" fill="white" transform="translate(0.700195)"/>
</clipPath>
</defs>
</svg>
