<svg width="14" height="18" viewBox="0 0 14 18" fill="none" xmlns="http://www.w3.org/2000/svg">
<path d="M8.59052 4.5L11.0584 4.96636L13.0905 4.5L8.59052 0L7.96973 2.13341L8.59052 4.5Z" fill="#56368A"/>
<path d="M8.59091 4.5V0H1.22727C0.549205 0 0 0.549205 0 1.22727V16.7727C0 17.4508 0.549205 18 1.22727 18H11.8636C12.5417 18 13.0909 17.4508 13.0909 16.7727V4.5H8.59091Z" fill="#7248B9"/>
<path d="M3.47692 12.9879C3.13839 12.9879 2.86328 12.7128 2.86328 12.3743C2.86328 12.0358 3.13839 11.7607 3.47692 11.7607C3.81544 11.7607 4.09055 12.0358 4.09055 12.3743C4.09055 12.7128 3.81544 12.9879 3.47692 12.9879ZM3.47692 10.5334C3.13839 10.5334 2.86328 10.2583 2.86328 9.91974C2.86328 9.58122 3.13839 9.30611 3.47692 9.30611C3.81544 9.30611 4.09055 9.58122 4.09055 9.91974C4.09055 10.2583 3.81544 10.5334 3.47692 10.5334ZM3.47692 8.07884C3.13839 8.07884 2.86328 7.80372 2.86328 7.4652C2.86328 7.12668 3.13839 6.85156 3.47692 6.85156C3.81544 6.85156 4.09055 7.12668 4.09055 7.4652C4.09055 7.80372 3.81544 8.07884 3.47692 8.07884ZM10.2269 12.8857H5.11328V11.8629H10.2269V12.8857ZM10.2269 10.4311H5.11328V9.40838H10.2269V10.4311ZM10.2269 7.97656H5.11328V6.95384H10.2269V7.97656Z" fill="white"/>
</svg>
