<svg width="115" height="27" viewBox="0 0 115 27" fill="none" xmlns="http://www.w3.org/2000/svg">
<path d="M21.6236 12.7878C22.0018 12.7878 22.2291 13.0152 22.3058 13.47C22.3058 16.4258 21.3572 18.8517 19.4636 20.7453C17.5685 22.6409 15.1436 23.5875 12.1877 23.5875C10.8235 23.5875 9.51589 23.3035 8.26535 22.7351C7.01481 22.1667 5.91553 21.4099 4.96848 20.4614C4.01996 19.5148 3.28125 18.3975 2.75185 17.1079C2.221 15.8198 1.95605 14.4931 1.95605 13.1289C1.95605 11.7647 2.24051 10.42 2.80894 9.09331C3.37737 7.76812 4.11608 6.63126 5.02556 5.68275C5.93505 4.73618 7.01481 3.97746 8.26535 3.40904C9.51589 2.84061 10.8235 2.55664 12.1877 2.55664C15.7496 2.55664 18.5917 3.76961 20.7142 6.19457C20.7888 6.34681 20.7888 6.49806 20.7142 6.64932L20.2594 7.21774L20.1457 7.33143C19.993 7.33143 19.8793 7.29386 19.8047 7.21774V7.10406C17.9091 4.90695 15.3709 3.80718 12.1877 3.80718C10.5962 3.80718 9.11824 4.24436 7.75401 5.11481C6.38979 5.98721 5.31002 7.14309 4.51373 8.58197C3.71794 10.0228 3.32028 11.5383 3.32028 13.1294C3.32028 15.6305 4.19073 17.7729 5.93505 19.5524C7.6779 21.3338 9.76132 22.2242 12.1877 22.2242C14.6127 22.2242 16.6395 21.4675 18.2702 19.9505C19.8988 18.4355 20.7888 16.5029 20.9415 14.1526H15.4846C15.3319 14.1526 15.2182 14.1155 15.1436 14.0394C15.067 13.9647 15.067 13.8505 15.1436 13.6983L15.5983 13.1299C15.7496 12.9025 16.014 12.7888 16.3941 12.7888H21.6236V12.7878ZM44.4744 21.9969C44.7018 22.073 44.833 22.1676 44.8721 22.2808C44.9092 22.3945 44.8526 22.5282 44.7013 22.679L44.2466 23.2469C44.1704 23.3235 44.0938 23.3606 44.0192 23.3606H30.3769C29.8456 23.3606 29.4284 23.2093 29.1264 22.9058C28.899 22.5277 28.7853 22.1491 28.7853 21.769V3.35244V3.23827C28.86 3.08701 28.9737 3.01089 29.1264 3.01089H29.8085C30.0359 3.08701 30.1496 3.20118 30.1496 3.35195V21.769C30.1496 21.8451 30.1676 21.9017 30.2066 21.9398C30.2442 21.9788 30.3384 21.9964 30.4911 21.9964L44.4744 21.9969ZM68.0073 2.78401C68.8407 2.86013 69.2578 3.46564 69.2578 4.60298V23.02C69.2578 23.1727 69.2188 23.2869 69.1442 23.3611C69.0676 23.3611 68.9914 23.3611 68.9168 23.3611H68.2347C68.082 23.3611 67.9683 23.2474 67.8936 23.02V4.60249L68.0073 4.48929C68.0073 4.33804 67.9683 4.26192 67.8936 4.26192H67.7799L50.9545 23.2469C50.8779 23.3235 50.8018 23.3606 50.7271 23.3606H49.4766C49.4 23.3606 49.3629 23.3235 49.3629 23.2469C49.3629 23.1727 49.3629 23.0961 49.3629 23.0195L66.7568 3.46564C67.1349 3.01089 67.5526 2.78401 68.0073 2.78401ZM84.6054 12.1057C87.0299 12.561 88.8293 13.2055 90.0052 14.0389C91.1791 14.8737 91.7671 16.1238 91.7671 17.79C91.7671 19.5343 91.085 20.9356 89.7207 21.9964C88.3565 23.0586 86.5376 23.588 84.2638 23.588C81.1553 23.588 78.9953 22.414 77.7838 20.0637C77.7077 19.9891 77.7077 19.9125 77.7838 19.8363V19.7227H77.8975L78.3522 19.2679C78.4269 19.1933 78.5035 19.1542 78.5796 19.1542C78.6542 19.1542 78.7308 19.2303 78.8069 19.3816H78.9206C78.9206 19.4582 78.9582 19.5343 79.0343 19.6095V19.7227C80.0951 21.3909 81.8374 22.2237 84.2638 22.2237C86.1575 22.2237 87.6549 21.8261 88.7547 21.0303C89.8525 20.2345 90.4029 19.1542 90.4029 17.79C90.4029 16.579 89.9657 15.6495 89.0952 15.005C88.2228 14.3619 86.6512 13.811 84.3775 13.3563C81.6491 12.8269 79.8301 12.1057 78.9206 11.1962C78.0111 10.2868 77.5564 9.22602 77.5564 8.01305C77.5564 6.42146 78.1819 5.11432 79.4325 4.09115C80.683 3.06749 82.3312 2.55615 84.3775 2.55615C87.2567 2.55615 89.266 3.61836 90.4029 5.73886C90.4775 5.81546 90.4775 5.92915 90.4029 6.07991L89.9481 6.53465C89.7954 6.61126 89.6817 6.64834 89.6071 6.64834C89.5305 6.64834 89.4934 6.61126 89.4934 6.53465L89.3797 6.42146L89.0386 5.96672C88.962 5.81546 88.8483 5.66469 88.6976 5.51149C87.7115 4.45123 86.2712 3.91989 84.3775 3.91989C83.3153 3.91989 82.3683 4.09066 81.5354 4.43172C80.7006 4.77229 80.0575 5.24703 79.6027 5.85254C79.148 6.46 78.9206 7.17969 78.9206 8.01257C78.9206 9.07526 79.3558 9.90814 80.2282 10.5136C81.0987 11.1216 82.5586 11.651 84.6054 12.1057ZM105.069 12.1057C107.57 12.561 109.389 13.2055 110.525 14.0389C111.662 14.8737 112.231 16.1238 112.231 17.79C112.231 19.5343 111.549 20.9356 110.185 21.9964C108.82 23.0586 107.001 23.588 104.728 23.588C101.619 23.588 99.4591 22.414 98.2476 20.0637C98.171 19.9891 98.171 19.9125 98.2476 19.8363L98.3613 19.7227L98.8161 19.2679C98.8907 19.1933 98.9668 19.1542 99.0434 19.1542C99.1181 19.1542 99.2318 19.2303 99.3845 19.3816L99.4982 19.6095L99.6119 19.7227C100.596 21.3909 102.301 22.2237 104.728 22.2237C106.016 22.2237 107.115 22.0354 108.025 21.6553C108.934 21.2772 109.634 20.7653 110.128 20.1203C110.62 19.4777 110.867 18.6995 110.867 17.79C110.867 16.9571 110.677 16.275 110.299 15.7437C109.919 15.2143 109.313 14.7595 108.479 14.3794C107.644 14.0013 106.433 13.6598 104.841 13.3563C102.113 12.8269 100.294 12.1057 99.3845 11.1962C98.475 10.2868 98.0203 9.22602 98.0203 8.01305C98.0203 6.42146 98.6458 5.11432 99.8963 4.09115C101.147 3.06749 102.795 2.55615 104.841 2.55615C107.721 2.55615 109.73 3.61836 110.867 5.73886C110.941 5.81546 110.941 5.92915 110.867 6.07991L110.412 6.53465C110.336 6.61126 110.26 6.64834 110.185 6.64834H110.071C109.995 6.64834 109.958 6.61126 109.958 6.53465L109.844 6.42146L109.503 5.96672C109.426 5.81546 109.313 5.66469 109.162 5.51149C108.176 4.45123 106.736 3.91989 104.842 3.91989C103.78 3.91989 102.833 4.09066 102 4.43172C101.165 4.77229 100.522 5.24703 100.067 5.85254C99.6124 6.46 99.385 7.17969 99.385 8.01257C99.385 9.07526 99.8202 9.90814 100.693 10.5136C101.562 11.1216 103.022 11.651 105.069 12.1057Z" fill="black"/>
</svg>
