<svg width="141" height="36" viewBox="0 0 141 36" fill="none" xmlns="http://www.w3.org/2000/svg">
<path fill-rule="evenodd" clip-rule="evenodd" d="M15.7511 9.00007C12.4403 9.00007 9.75633 11.6864 9.75633 15.0001C9.75633 18.3138 12.4403 21.0002 15.7511 21.0002C19.0619 21.0002 21.7459 18.3138 21.7459 15.0001C21.7459 11.6864 19.0619 9.00007 15.7511 9.00007ZM12.7537 15.0001C12.7537 13.3432 14.0957 12.0001 15.7511 12.0001C17.4065 12.0001 18.7485 13.3432 18.7485 15.0001C18.7485 16.657 17.4065 18.0001 15.7511 18.0001C14.0957 18.0001 12.7537 16.657 12.7537 15.0001Z" fill="#EF4444"/>
<path fill-rule="evenodd" clip-rule="evenodd" d="M14.919 35.7478C14.9194 35.7481 14.9198 35.7483 15.7511 34.5003L14.919 35.7478C15.4224 36.0837 16.079 36.0842 16.5824 35.7483L15.7511 34.5003C16.5824 35.7483 16.582 35.7486 16.5824 35.7483L16.5875 35.7449L16.5975 35.7382L16.6319 35.715C16.661 35.6951 16.7027 35.6667 16.7559 35.6298C16.8623 35.556 17.0153 35.4485 17.2081 35.3091C17.5937 35.0304 18.1395 34.6236 18.7922 34.1034C20.0953 33.0648 21.8367 31.5645 23.5832 29.7193C27.0149 26.0938 30.738 20.8531 30.738 15.0001C30.738 11.0218 29.1591 7.2065 26.3485 4.39343C23.5379 1.58036 19.7259 0 15.7511 0C11.7763 0 7.96433 1.58036 5.15373 4.39343C2.34314 7.2065 0.76416 11.0218 0.76416 15.0001C0.76416 20.8531 4.48731 26.0938 7.919 29.7193C9.66549 31.5645 11.4069 33.0648 12.71 34.1034C13.3627 34.6236 13.9085 35.0304 14.2941 35.3091C14.4869 35.4485 14.6399 35.556 14.7463 35.6298C14.7995 35.6667 14.8412 35.6951 14.8703 35.715L14.9047 35.7382L14.9147 35.7449L14.919 35.7478ZM7.27321 6.51477C9.52168 4.26431 12.5713 3.00002 15.7511 3.00002C18.9309 3.00002 21.9805 4.26431 24.229 6.51477C26.4775 8.76522 27.7407 11.8175 27.7407 15.0001C27.7407 19.6472 24.7197 24.1566 21.4072 27.6561C19.7817 29.3735 18.151 30.7794 16.9251 31.7565C16.4688 32.1201 16.0703 32.423 15.7511 32.6591C15.4319 32.423 15.0334 32.1201 14.5771 31.7565C13.3512 30.7794 11.7205 29.3735 10.095 27.6561C6.78252 24.1566 3.76155 19.6472 3.76155 15.0001C3.76155 11.8175 5.02473 8.76522 7.27321 6.51477Z" fill="#EF4444"/>
<path d="M127.935 33.4648C128.338 33.5415 128.775 33.5798 129.248 33.5798C130.155 33.5798 130.934 33.4296 131.585 33.1292C132.243 32.8351 132.799 32.4069 133.252 31.8444C133.706 31.2883 134.07 30.6203 134.344 29.8405L140.236 13.3297H136.548L133.147 24.4519H132.994L129.602 13.3297H125.924L131.26 28.3639L130.963 29.1597C130.752 29.7158 130.493 30.1121 130.187 30.3486C129.887 30.5915 129.538 30.7162 129.143 30.7226C128.747 30.729 128.296 30.6586 127.792 30.5116L126.987 33.2155C127.223 33.3114 127.54 33.3945 127.935 33.4648Z" fill="#EF4444"/>
<path fill-rule="evenodd" clip-rule="evenodd" d="M109.516 28.057V8.42053H117.027C118.444 8.42053 119.623 8.64426 120.561 9.0917C121.507 9.53276 122.212 10.1368 122.679 10.9039C123.151 11.6709 123.388 12.5402 123.388 13.5118C123.388 14.3109 123.234 14.9948 122.928 15.5637C122.621 16.1262 122.209 16.5832 121.692 16.9348C121.175 17.2864 120.597 17.5389 119.958 17.6923V17.884C120.654 17.9224 121.321 18.1365 121.96 18.5264C122.605 18.91 123.132 19.4533 123.541 20.1564C123.95 20.8595 124.154 21.7097 124.154 22.7069C124.154 23.7232 123.908 24.6373 123.416 25.4491C122.924 26.2545 122.184 26.8905 121.194 27.3571C120.204 27.8237 118.958 28.057 117.458 28.057H109.516ZM113.07 25.0847H116.892C118.183 25.0847 119.112 24.8386 119.68 24.3464C120.255 23.8479 120.542 23.2086 120.542 22.4288C120.542 21.8471 120.399 21.323 120.111 20.8564C119.824 20.3833 119.415 20.0126 118.885 19.7441C118.355 19.4693 117.723 19.3318 116.988 19.3318H113.07V25.0847ZM113.07 16.7718H116.586C117.199 16.7718 117.751 16.6599 118.243 16.4362C118.735 16.2061 119.121 15.8833 119.402 15.4678C119.69 15.0459 119.833 14.5474 119.833 13.9721C119.833 13.2114 119.565 12.585 119.029 12.0928C118.499 11.6006 117.71 11.3545 116.663 11.3545H113.07V16.7718Z" fill="#EF4444"/>
<path d="M105.797 28.057V8.42053H102.329V28.057H105.797Z" fill="#EF4444"/>
<path fill-rule="evenodd" clip-rule="evenodd" d="M91.0727 28.3543C90.1403 28.3543 89.3005 28.1881 88.5533 27.8557C87.8124 27.5169 87.2249 27.0183 86.7906 26.36C86.3627 25.7016 86.1487 24.8898 86.1487 23.9246C86.1487 23.0936 86.302 22.4065 86.6086 21.8631C86.9151 21.3198 87.3334 20.8851 87.8635 20.5591C88.3936 20.2331 88.9907 19.987 89.6549 19.8209C90.3255 19.6483 91.0184 19.5236 91.7337 19.4469C92.5959 19.3574 93.2952 19.2775 93.8317 19.2072C94.3681 19.1305 94.7577 19.0154 95.0004 18.862C95.2495 18.7022 95.374 18.4561 95.374 18.1237V18.0662C95.374 17.3439 95.1601 16.7846 94.7322 16.3883C94.3043 15.992 93.688 15.7938 92.8833 15.7938C92.0339 15.7938 91.3601 15.9792 90.862 16.3499C90.3702 16.7207 90.0381 17.1585 89.8657 17.6635L86.6277 17.2033C86.8832 16.3084 87.3047 15.5605 87.8923 14.9597C88.4798 14.3524 89.1983 13.8986 90.0477 13.5981C90.8971 13.2913 91.8359 13.1379 92.8641 13.1379C93.573 13.1379 94.2787 13.221 94.9812 13.3872C95.6838 13.5534 96.3256 13.8283 96.9068 14.2118C97.4879 14.5889 97.9542 15.1035 98.3054 15.7555C98.6631 16.4075 98.8419 17.2225 98.8419 18.2005V28.0571H95.5081V26.034H95.3932C95.1824 26.4431 94.8855 26.8266 94.5023 27.1845C94.1255 27.5361 93.6497 27.8206 93.0749 28.0379C92.5065 28.2488 91.8391 28.3543 91.0727 28.3543ZM91.9732 25.8039C92.6693 25.8039 93.2729 25.6664 93.7838 25.3916C94.2947 25.1103 94.6875 24.7396 94.9621 24.2793C95.2431 23.8191 95.3836 23.3173 95.3836 22.774V21.0385C95.275 21.128 95.0898 21.2111 94.828 21.2878C94.5725 21.3645 94.2851 21.4317 93.9658 21.4892C93.6465 21.5467 93.3303 21.5979 93.0174 21.6426C92.7045 21.6873 92.433 21.7257 92.2031 21.7577C91.6858 21.828 91.2228 21.943 90.8141 22.1028C90.4053 22.2626 90.0828 22.4864 89.8465 22.774C89.6102 23.0552 89.4921 23.4196 89.4921 23.867C89.4921 24.5063 89.7252 24.9889 90.1914 25.3149C90.6576 25.6409 91.2515 25.8039 91.9732 25.8039Z" fill="#EF4444"/>
<path d="M73.9035 27.3763C74.9573 28.0219 76.2186 28.3447 77.6875 28.3447C78.9201 28.3447 79.993 28.121 80.9063 27.6735C81.8195 27.2197 82.5412 26.5933 83.0713 25.7943C83.6014 24.9889 83.9079 24.0652 83.9909 23.0233H80.6763C80.5742 23.5538 80.3858 24.0045 80.1111 24.3752C79.8365 24.746 79.4948 25.0304 79.0861 25.2286C78.6838 25.4203 78.2271 25.5162 77.7162 25.5162C76.9945 25.5162 76.3655 25.3244 75.829 24.9409C75.2989 24.551 74.887 23.9981 74.5932 23.2822C74.2994 22.5599 74.1526 21.6969 74.1526 20.6934C74.1526 19.7026 74.2994 18.8524 74.5932 18.1429C74.8934 17.4334 75.3117 16.8901 75.8482 16.5129C76.3846 16.1294 77.0073 15.9377 77.7162 15.9377C78.5528 15.9377 79.2202 16.1774 79.7184 16.6568C80.2229 17.1298 80.5422 17.721 80.6763 18.4306H83.9909C83.9143 17.3695 83.6014 16.4426 83.0521 15.65C82.5029 14.851 81.7652 14.2342 80.8392 13.7995C79.9195 13.3584 78.8626 13.1379 77.6683 13.1379C76.2314 13.1379 74.986 13.4607 73.9322 14.1063C72.8848 14.7455 72.0738 15.6404 71.499 16.791C70.9242 17.9352 70.6368 19.2552 70.6368 20.7509C70.6368 22.2403 70.9178 23.557 71.4798 24.7012C72.0482 25.839 72.8561 26.7307 73.9035 27.3763Z" fill="#EF4444"/>
<path fill-rule="evenodd" clip-rule="evenodd" d="M61.275 28.3447C59.8381 28.3447 58.5927 28.0283 57.5389 27.3955C56.4852 26.7627 55.6677 25.8774 55.0865 24.7396C54.5117 23.6018 54.2243 22.2722 54.2243 20.7509C54.2243 19.2296 54.5117 17.8968 55.0865 16.7526C55.6677 15.6085 56.4852 14.72 57.5389 14.0871C58.5927 13.4543 59.8381 13.1379 61.275 13.1379C62.712 13.1379 63.9573 13.4543 65.0111 14.0871C66.0649 14.72 66.8792 15.6085 67.4539 16.7526C68.0351 17.8968 68.3257 19.2296 68.3257 20.7509C68.3257 22.2722 68.0351 23.6018 67.4539 24.7396C66.8792 25.8774 66.0649 26.7627 65.0111 27.3955C63.9573 28.0283 62.712 28.3447 61.275 28.3447ZM61.2942 25.5641C62.0733 25.5641 62.7247 25.35 63.2484 24.9217C63.7721 24.4871 64.1617 23.9054 64.4172 23.1767C64.679 22.448 64.8099 21.6362 64.8099 20.7413C64.8099 19.84 64.679 19.025 64.4172 18.2963C64.1617 17.5612 63.7721 16.9764 63.2484 16.5417C62.7247 16.107 62.0733 15.8897 61.2942 15.8897C60.4959 15.8897 59.8317 16.107 59.3016 16.5417C58.7779 16.9764 58.3851 17.5612 58.1233 18.2963C57.8678 19.025 57.7401 19.84 57.7401 20.7413C57.7401 21.6362 57.8678 22.448 58.1233 23.1767C58.3851 23.9054 58.7779 24.4871 59.3016 24.9217C59.8317 25.35 60.4959 25.5641 61.2942 25.5641Z" fill="#EF4444"/>
<path d="M39.7302 8.42053V28.057H51.9252V25.0751H43.2843V8.42053H39.7302Z" fill="#EF4444"/>
</svg>
