<svg width="14" height="18" viewBox="0 0 14 18" fill="none" xmlns="http://www.w3.org/2000/svg">
<g clip-path="url(#clip0_36_570)">
<path d="M8.59073 0L13.0907 4.5L10.8407 4.90909L8.59073 4.5L8.18164 2.25L8.59073 0Z" fill="#188038"/>
<path d="M8.59091 4.5V0H1.22727C0.549205 0 0 0.549205 0 1.22727V16.7727C0 17.4508 0.549205 18 1.22727 18H11.8636C12.5417 18 13.0909 17.4508 13.0909 16.7727V4.5H8.59091Z" fill="#34A853"/>
<path d="M2.45459 6.95459V12.8864H10.6364V6.95459H2.45459ZM6.03414 11.8637H3.47732V10.4319H6.03414V11.8637ZM6.03414 9.40914H3.47732V7.97732H6.03414V9.40914ZM9.61368 11.8637H7.05686V10.4319H9.61368V11.8637ZM9.61368 9.40914H7.05686V7.97732H9.61368V9.40914Z" fill="white"/>
</g>
<defs>
<clipPath id="clip0_36_570">
<rect width="13.0909" height="18" fill="white"/>
</clipPath>
</defs>
</svg>
