<svg width="171" height="25" viewBox="0 0 171 25" fill="none" xmlns="http://www.w3.org/2000/svg">
<g clip-path="url(#clip0_36_504)">
<path d="M89.3283 4.15918H91.3495L87.3281 19.2343H85.3489L82.1065 9.29652H82.0223L78.7799 19.2343H76.8007L72.6108 4.15918H74.6321L77.8113 16.013H77.8956L81.159 6.18043H82.9697L86.2332 16.013H86.3174L89.3283 4.15918Z" fill="#5F6368"/>
<mask id="mask0_36_504" style="mask-type:luminance" maskUnits="userSpaceOnUse" x="-1" y="2" width="173" height="23">
<path d="M171.372 2.5H-0.331055V24.5H171.372V2.5Z" fill="white"/>
</mask>
<g mask="url(#mask0_36_504)">
<path d="M91.1665 14.0758C91.1665 12.49 91.6648 11.1776 92.6614 10.1386C93.672 9.09992 94.9423 8.58057 96.4723 8.58057C98.0023 8.58057 99.2655 9.09992 100.262 10.1386C101.273 11.1776 101.778 12.49 101.778 14.0758C101.778 15.676 101.273 16.9884 100.262 18.0131C99.2653 19.0521 98.002 19.5714 96.4723 19.5711C94.9426 19.5708 93.6723 19.0511 92.6614 18.0118C91.6645 16.9734 91.1662 15.661 91.1665 14.0746M93.1035 14.0746C93.1035 15.1837 93.4264 16.0821 94.0721 16.7696C94.7177 17.4571 95.5178 17.8008 96.4723 17.8008C97.4268 17.8008 98.2268 17.4571 98.8725 16.7696C99.5182 16.0821 99.841 15.1837 99.841 14.0746C99.841 12.9797 99.5182 12.0884 98.8725 11.4006C98.2137 10.6991 97.4136 10.3482 96.4723 10.3479C95.531 10.3476 94.7306 10.6989 94.0712 11.4019C93.4252 12.0894 93.1024 12.9807 93.1027 14.0758" fill="#5F6368"/>
<path d="M105.09 19.2341H103.153V8.91732H105.006V10.6017H105.092C105.288 10.0543 105.692 9.58749 106.302 9.20135C106.913 8.8152 107.513 8.62227 108.102 8.62256C108.664 8.62256 109.141 8.70678 109.534 8.87521L108.943 10.7499C108.704 10.652 108.325 10.6028 107.806 10.6026C107.076 10.6026 106.441 10.8973 105.901 11.4869C105.36 12.0764 105.09 12.7639 105.09 13.5494V19.2341Z" fill="#5F6368"/>
<path d="M119.504 19.2343H117.167L113.945 14.3707L112.366 15.9287V19.2343H110.429V4.15918H112.366V13.4443L116.83 8.91754H119.314V9.00176L115.293 13.0021L119.504 19.1501V19.2343Z" fill="#5F6368"/>
<path d="M127.885 16.3711C127.885 17.2697 127.492 18.0277 126.706 18.645C125.92 19.2623 124.93 19.5711 123.737 19.5714C122.699 19.5714 121.786 19.3012 121 18.7606C120.23 18.2407 119.642 17.4938 119.316 16.6238L121.042 15.8869C121.295 16.5047 121.664 16.9854 122.148 17.3289C122.61 17.6655 123.167 17.8461 123.738 17.8445C124.356 17.8445 124.871 17.7112 125.285 17.4445C125.698 17.1778 125.905 16.862 125.906 16.497C125.906 15.8382 125.4 15.3539 124.39 15.0442L122.621 14.6021C120.614 14.0968 119.611 13.128 119.611 11.6957C119.611 10.7555 119.993 10.001 120.758 9.43209C121.524 8.86318 122.502 8.57902 123.695 8.57959C124.608 8.57959 125.433 8.79716 126.169 9.23229C126.906 9.66742 127.422 10.2499 127.716 10.9798L125.99 11.6957C125.792 11.259 125.456 10.8999 125.032 10.6743C124.578 10.4257 124.066 10.2988 123.548 10.3061C123.068 10.2989 122.597 10.4305 122.19 10.6851C121.789 10.9377 121.589 11.2465 121.589 11.6115C121.589 12.201 122.143 12.6221 123.252 12.8747L124.81 13.2748C126.859 13.7801 127.884 14.8113 127.884 16.3685" fill="#5F6368"/>
<path d="M134.612 19.5711C133.854 19.5711 133.163 19.4097 132.538 19.0869C131.914 18.764 131.433 18.3359 131.096 17.8025H131.01L131.096 19.2342V23.7821H129.159V8.91744H131.011V10.3492H131.097C131.434 9.81606 131.915 9.38795 132.54 9.06482C133.165 8.7417 133.856 8.58028 134.614 8.58057C135.975 8.58057 137.126 9.11395 138.067 10.1807C139.035 11.2618 139.519 12.5602 139.519 14.0758C139.519 15.6061 139.035 16.9045 138.067 17.971C137.126 19.0377 135.975 19.5711 134.614 19.5711M134.298 17.8025C135.224 17.8025 136.003 17.4516 136.635 16.7498C137.265 16.0623 137.58 15.171 137.58 14.0758C137.58 12.9953 137.265 12.104 136.635 11.4019C136.005 10.6998 135.226 10.3489 134.298 10.3492C133.357 10.3492 132.571 10.7001 131.94 11.4019C131.322 12.104 131.013 12.9953 131.013 14.0758C131.013 15.1707 131.322 16.069 131.94 16.7708C132.57 17.4583 133.356 17.8021 134.298 17.8021" fill="#5F6368"/>
<path d="M144.823 8.58051C146.256 8.58051 147.386 8.96293 148.213 9.72777C149.041 10.4926 149.455 11.5419 149.455 12.8757V19.235H147.603V17.8025H147.517C146.717 18.9815 145.65 19.5711 144.316 19.5711C143.179 19.5711 142.228 19.2342 141.463 18.5604C140.698 17.8867 140.316 17.0445 140.316 16.0339C140.316 14.9674 140.719 14.1182 141.526 13.4862C142.333 12.8543 143.411 12.5385 144.758 12.5388C145.909 12.5388 146.857 12.7493 147.601 13.1704V12.7266C147.601 12.0528 147.334 11.4808 146.801 11.0104C146.287 10.5478 145.618 10.296 144.927 10.3053C143.846 10.3053 142.99 10.7615 142.358 11.6738L140.653 10.5996C141.593 9.25326 142.982 8.58008 144.821 8.58008M142.318 16.0781C142.318 16.5834 142.532 17.0045 142.96 17.3414C143.388 17.6783 143.889 17.8467 144.464 17.8467C145.278 17.8467 146.004 17.5449 146.643 16.9414C147.281 16.3378 147.601 15.629 147.601 14.8148C146.997 14.3379 146.155 14.0993 145.074 14.099C144.288 14.099 143.632 14.2885 143.105 14.6675C142.579 15.0464 142.317 15.5167 142.318 16.0781Z" fill="#5F6368"/>
<path d="M156.022 19.5711C154.492 19.5711 153.222 19.0518 152.211 18.0131C151.214 16.9466 150.716 15.6342 150.716 14.0758C150.716 12.49 151.215 11.1776 152.211 10.1386C153.222 9.09992 154.492 8.58057 156.022 8.58057C157.075 8.58057 157.994 8.84368 158.78 9.3699C159.566 9.89613 160.156 10.6226 160.549 11.5493L158.782 12.2862C158.235 10.9948 157.273 10.3492 155.897 10.3492C155.013 10.3492 154.248 10.7072 153.603 11.4234C152.971 12.1395 152.655 13.0238 152.655 14.0763C152.655 15.1287 152.971 16.013 153.603 16.7292C154.248 17.4453 155.013 17.8034 155.897 17.8034C157.315 17.8034 158.312 17.1577 158.887 15.8663L160.614 16.6033C160.235 17.5297 159.642 18.256 158.834 18.7822C158.027 19.3084 157.09 19.5717 156.024 19.572" fill="#5F6368"/>
<path d="M166.446 19.5711C164.93 19.5711 163.681 19.0518 162.698 18.0131C161.716 16.9744 161.225 15.662 161.225 14.0758C161.225 12.504 161.702 11.1951 162.656 10.1489C163.611 9.10278 164.832 8.57999 166.32 8.58057C167.85 8.58057 169.067 9.07528 169.972 10.0647C170.877 11.0541 171.33 12.4403 171.329 14.2232L171.308 14.4338H163.204C163.232 15.4444 163.569 16.2585 164.214 16.8761C164.859 17.4937 165.631 17.8025 166.53 17.8025C167.765 17.8025 168.734 17.1849 169.436 15.9497L171.162 16.7919C170.722 17.6382 170.055 18.3453 169.236 18.8342C168.414 19.3252 167.485 19.5708 166.446 19.5711ZM163.352 12.8336H169.267C169.209 12.1175 168.918 11.5244 168.393 11.0543C167.867 10.5842 167.162 10.3492 166.277 10.3492C165.547 10.3492 164.918 10.5737 164.392 11.0229C163.866 11.4721 163.519 12.0756 163.35 12.8336" fill="#5F6368"/>
</g>
<mask id="mask1_36_504" style="mask-type:luminance" maskUnits="userSpaceOnUse" x="-1" y="2" width="173" height="23">
<path d="M171.372 2.5H-0.331055V24.5H171.372V2.5Z" fill="white"/>
</mask>
<g mask="url(#mask1_36_504)">
<path d="M8.36582 12.6226V10.2911H16.1689C16.2556 10.7626 16.2977 11.2412 16.2948 11.7207C16.2948 13.4686 15.8166 15.6334 14.2753 17.1734C12.777 18.7345 10.8627 19.5672 8.32414 19.5672C3.62207 19.5672 -0.331055 15.7374 -0.331055 11.0336C-0.331055 6.3298 3.62207 2.5 8.325 2.5C10.9268 2.5 12.7779 3.52008 14.1722 4.85211L12.5282 6.49609C11.5283 5.5598 10.177 4.83105 8.325 4.83105C4.8918 4.83105 2.20754 7.5991 2.20754 11.0336C2.20754 14.4681 4.8918 17.2383 8.325 17.2383C10.5516 17.2383 11.8209 16.3432 12.6322 15.5316C13.2935 14.8703 13.7292 13.9215 13.898 12.6247L8.36582 12.6226Z" fill="#4285F4"/>
<path d="M28.1847 14.0725C28.1847 17.2384 25.708 19.5673 22.671 19.5673C19.6339 19.5673 17.1572 17.2384 17.1572 14.0725C17.1572 10.8881 19.6335 8.57764 22.6718 8.57764C25.7102 8.57764 28.1856 10.8881 28.1856 14.0725M25.772 14.0725C25.772 12.0959 24.3364 10.7424 22.6718 10.7424C21.0072 10.7424 19.5712 12.0951 19.5712 14.0725C19.5712 16.0288 21.0068 17.4026 22.6718 17.4026C24.3369 17.4026 25.772 16.0276 25.772 14.0725Z" fill="#EA4335"/>
<path d="M40.214 14.0725C40.214 17.2384 37.7394 19.5673 34.7002 19.5673C31.661 19.5673 29.186 17.2384 29.186 14.0725C29.186 10.8881 31.6619 8.57764 34.7002 8.57764C37.7385 8.57764 40.214 10.8881 40.214 14.0725ZM37.8004 14.0725C37.8004 12.0959 36.3648 10.7424 34.7002 10.7424C33.0356 10.7424 31.5996 12.0951 31.5996 14.0725C31.5996 16.0288 33.0352 17.4026 34.7002 17.4026C36.3653 17.4026 37.8004 16.0276 37.8004 14.0725Z" fill="#FBBC04"/>
<path d="M51.7441 8.91064V18.7763C51.7441 22.8351 49.3512 24.5001 46.5212 24.5001C43.8572 24.5001 42.2553 22.7101 41.652 21.2534L43.7549 20.379C44.1292 21.274 45.044 22.3354 46.5225 22.3354C48.3328 22.3354 49.4564 21.2113 49.4564 19.1093V18.3187H49.3731C48.8321 18.9847 47.7918 19.5673 46.4808 19.5673C43.7338 19.5673 41.2163 17.1735 41.2163 14.0935C41.2163 10.9921 43.7338 8.57764 46.4808 8.57764C47.7918 8.57764 48.8321 9.16029 49.3731 9.80568H49.4564V8.91064H51.7441ZM49.6214 14.0935C49.6214 12.1578 48.3324 10.742 46.6875 10.742C45.0229 10.742 43.6286 12.1574 43.6286 14.0935C43.6286 16.0082 45.0229 17.4021 46.6875 17.4021C48.3315 17.4021 49.6214 16.0078 49.6214 14.0935Z" fill="#4285F4"/>
<path d="M55.832 3.13672H53.4185V19.2341H55.832V3.13672Z" fill="#34A853"/>
<path d="M65.1533 15.8832L67.0259 17.1319C66.4243 18.0269 64.9659 19.5673 62.448 19.5673C59.3267 19.5673 56.9961 17.1529 56.9961 14.0725C56.9961 10.8069 59.3478 8.57764 62.1773 8.57764C65.0282 8.57764 66.4221 10.8464 66.8802 12.0744L67.1298 12.6988L59.7822 15.7375C60.3442 16.8405 61.2182 17.4026 62.4462 17.4026C63.6743 17.4026 64.5272 16.801 65.1533 15.8832ZM59.389 13.9066L64.2999 11.8673C64.0292 11.1798 63.218 10.702 62.2606 10.702C61.033 10.702 59.3267 11.7844 59.389 13.9075" fill="#EA4335"/>
</g>
</g>
<defs>
<clipPath id="clip0_36_504">
<rect width="171" height="25" fill="white"/>
</clipPath>
</defs>
</svg>
