<svg width="159" height="30" viewBox="0 0 159 30" fill="none" xmlns="http://www.w3.org/2000/svg">
<g clip-path="url(#clip0_36_658)">
<path fill-rule="evenodd" clip-rule="evenodd" d="M149.052 0C149.241 6.2954 149.52 12.6094 149.206 18.8042L152.554 19.1289C155.351 6.62638 156.054 5.11207 157.274 0.890969L149.052 0ZM0.449219 1.8139L0.481181 3.68274C1.5542 3.89478 5.98025 4.39562 6.62407 4.60767C8.98472 6.41002 18.4706 18.2243 18.8999 19.3905V26.2446C18.8999 27.3048 18.0411 27.4538 16.9681 27.7719C15.8951 28.0899 13.6766 28.0846 12.4963 27.9786L12.2815 29.9703C14.213 30.0763 20.0103 29.8644 21.8345 29.8644C25.4827 29.8644 31.8624 29.7584 32.7209 29.8644L32.9356 27.7669L26.1265 27.658C26.1265 27.658 25.9403 19.8818 26.0476 19.2457C26.7987 17.2313 37.3888 8.98601 38.5691 8.66797C39.6421 8.45593 42.8312 7.77015 43.5823 7.66413L44.9008 5.71439L26.6279 5.55656L27.0484 7.66213C27.6922 7.66213 31.4576 8.24117 32.638 8.45321C32.4234 10.1496 24.9363 15.4425 24.0779 16.6088C22.5756 14.4883 17.7571 8.47109 14.7527 4.12422C15.933 3.80616 20.3324 3.70001 21.2981 3.48796L21.5798 1.85286L0.449219 1.8139ZM131.505 23.5738C140.612 23.2947 146.392 19.2809 146.392 13.022C146.392 7.46282 141.405 3.70264 133.191 3.48702C132.643 3.47258 132.081 3.47428 131.505 3.49207C122.292 3.77445 116.564 7.67991 116.618 13.934C116.671 20.191 122.292 23.8562 131.505 23.5738ZM76.4303 4.20913L76.2665 5.86021C77.2683 5.9703 80.0995 6.34144 80.99 6.45153L80.8112 13.6981C76.344 13.8626 71.585 13.8806 66.9113 13.9419L67.0711 10.2122C67.0944 9.66827 67.2739 8.70092 67.2739 8.70092C68.2757 8.58241 71.347 8.33135 72.1262 8.33135L72.2661 6.62433C69.2178 6.70509 61.2313 6.69732 57.5032 6.69425L57.6989 8.30238C58.5205 8.33194 62.4425 8.60404 62.4425 8.60404C62.5537 9.59484 62.5553 12.2379 62.5553 13.2287V15.9805C62.5553 18.1823 62.4569 20.3139 62.3456 21.6349C61.6777 21.745 58.867 22.0894 57.7539 22.0894L57.657 24.1271C61.1988 24.1097 68.3391 24.0752 72.0293 24.1271L72.0943 22.1763C71.2038 22.0662 67.3618 21.6949 67.3618 21.6949C67.3618 21.6949 67.0639 20.7224 67.0301 19.2128L66.9742 16.7166C68.61 16.4571 79.2867 16.0372 80.8531 15.9985L80.8811 21.7268C80.2132 21.8369 77.0068 22.0794 76.4502 22.0794L76.5521 23.9393C80.0587 23.9547 84.1215 23.9888 88.0718 24.0012L88.1687 22.2792C87.3895 22.1691 84.8365 21.8946 84.8365 21.8946L84.401 6.45153C85.2916 6.34144 87.5727 5.66444 88.2406 5.66444L88.3525 4.26806C86.1262 4.37815 78.5452 4.31922 76.4303 4.20913ZM131.398 20.8339C127.216 20.9071 121.652 19.0486 121.652 13.78C121.652 8.51156 127.215 6.36697 131.398 6.23878C131.659 6.23075 131.926 6.2303 132.196 6.23767C136.247 6.34974 141.094 8.24529 141.144 13.1827C141.198 18.4482 135.576 20.7607 131.398 20.8339ZM101.736 7.22564C93.2449 7.4456 88.748 11.0058 88.748 16.432C88.748 21.5451 93.6539 25.1745 101.736 24.9651C109.818 24.7557 114.776 21.0796 114.827 15.7558C114.878 10.3285 109.818 7.01627 101.736 7.22564ZM101.736 9.62586C105.215 9.53574 110.327 10.9682 110.327 15.8726C110.327 20.6727 105.215 22.4748 101.736 22.5649C98.2572 22.655 93.1449 21.2215 93.1449 16.3171C93.1449 11.5171 98.2572 9.71598 101.736 9.62586ZM42.1599 12.0041L44.5452 12.7752C44.5452 12.7752 39.3931 22.9679 38.3993 24.3568C37.6042 24.5705 35.9311 25.065 35.1361 25.1719L34.5727 27.1166C35.169 27.0098 43.4874 27.0877 44.2825 27.0877L44.4673 25.1889L41.7124 24.6185C41.6404 24.1166 42.653 22.0099 43.5074 21.1176C44.4018 20.9039 49.3087 20.7969 49.3087 20.7969L52.0275 26.5812C52.0275 26.5812 49.2682 27.0877 48.3737 27.0877L48.146 28.9335L59.5748 29.0014L59.6207 27.2734C58.925 27.3803 56.8079 26.6551 56.0129 26.5483C55.1184 25.0525 51.4826 16.5096 49.9918 12.6634L52.5968 12.0391L52.9734 10.7406H48.8991C47.4083 10.7406 42.6743 10.7685 42.078 10.6617L42.1599 12.0041ZM46.7256 13.2586L48.8811 19.2138H44.1496C44.4478 18.4659 46.7256 13.2586 46.7256 13.2586ZM148.451 25.8651C149.769 25.9367 150.596 26.0264 152.172 26.1487L152.741 22.3052C151.158 22.3063 149.998 22.177 148.427 21.9346L148.451 25.8651ZM156.641 22.3481C155.598 22.3481 154.733 23.1485 154.733 24.2369C154.733 25.3228 155.598 26.1337 156.641 26.1337C157.662 26.1337 158.551 25.3254 158.551 24.2369C158.551 23.1485 157.662 22.3481 156.641 22.3481ZM156.641 22.6807C157.485 22.6807 158.161 23.356 158.162 24.2329C158.162 25.1305 157.485 25.8101 156.641 25.8101C155.765 25.8101 155.111 25.1331 155.111 24.2329C155.111 23.356 155.765 22.6807 156.641 22.6807ZM155.909 23.1482V25.3227H156.23V24.4117H156.619L157.186 25.3227H157.553L156.931 24.3778C157.253 24.3263 157.508 24.1457 157.508 23.7795C157.508 23.3565 157.242 23.1482 156.72 23.1482H155.909ZM156.23 23.4369H156.686C156.909 23.4369 157.164 23.4888 157.164 23.7595C157.164 24.0922 156.898 24.1051 156.631 24.1051H156.23V23.4369Z" fill="#7B0099"/>
</g>
<defs>
<clipPath id="clip0_36_658">
<rect width="158.102" height="30" fill="white" transform="translate(0.449219)"/>
</clipPath>
</defs>
</svg>
