<svg width="139" height="30" viewBox="0 0 139 30" fill="none" xmlns="http://www.w3.org/2000/svg">
<g clip-path="url(#clip0_36_597)">
<path d="M21.7384 30C21.7384 30 35.3655 30 38.7456 29.1C40.6488 28.59 42.0801 27.12 42.5824 25.305C43.5112 21.975 43.5112 14.97 43.5112 14.97C43.5112 14.97 43.5112 8.01 42.5824 4.71C42.0801 2.85 40.6488 1.40999 38.7456 0.914998C35.3655 -3.58052e-06 21.7384 0 21.7384 0C21.7384 0 8.14178 -3.58052e-06 4.77689 0.914998C2.90413 1.40999 1.44245 2.85 0.909551 4.71C0.0112307 8.01 0.0112305 14.97 0.0112305 14.97C0.0112305 14.97 0.0112307 21.975 0.909551 25.305C1.44245 27.12 2.90413 28.59 4.77689 29.1C8.14178 30 21.7384 30 21.7384 30Z" fill="#FF0033"/>
<path d="M28.5112 15L17.2612 8.625V21.375L28.5112 15Z" fill="white"/>
<path d="M55.7189 28.3498V20.1598L60.9239 3.1499H57.0389L55.0589 10.8749C54.6089 12.6449 54.2039 14.4899 53.9039 16.1998H53.6639C53.4989 14.6999 53.0189 12.7349 52.5389 10.8449L50.6189 3.1499H46.7339L51.8639 20.1598V28.3498H55.7189Z" fill="black"/>
<path d="M66.1616 9.44971C61.6166 9.44971 60.0566 12.0747 60.0566 17.7296V20.4146C60.0566 25.4846 61.0316 28.6646 66.0716 28.6646C71.0366 28.6646 72.1016 25.6346 72.1016 20.4146V17.7296C72.1016 12.6747 71.0816 9.44971 66.1616 9.44971ZM68.0966 22.0796C68.0966 24.5396 67.6616 26.0846 66.0866 26.0846C64.5416 26.0846 64.1066 24.5246 64.1066 22.0796V16.0197C64.1066 13.9197 64.4066 12.0447 66.0866 12.0447C67.8566 12.0447 68.0966 14.0247 68.0966 16.0197V22.0796Z" fill="black"/>
<path d="M78.4182 28.6345C80.6082 28.6345 81.9732 27.7195 83.0982 26.0695H83.2633L83.4282 28.3495H86.4131V9.80957H82.4533V24.7045C82.0331 25.4395 81.0581 25.9795 80.1431 25.9795C78.9881 25.9795 78.6283 25.0645 78.6283 23.5345V9.80957H74.6831V23.7145C74.6831 26.7295 75.5532 28.6345 78.4182 28.6345Z" fill="black"/>
<path d="M94.2504 28.3498V6.2249H98.8104V3.1499H85.7754V6.2249H90.3354V28.3498H94.2504Z" fill="black"/>
<path d="M101.82 28.6345C104.01 28.6345 105.375 27.7195 106.5 26.0695H106.665L106.83 28.3495H109.815V9.80957H105.855V24.7045C105.435 25.4395 104.46 25.9795 103.545 25.9795C102.39 25.9795 102.03 25.0645 102.03 23.5345V9.80957H98.0854V23.7145C98.0854 26.7295 98.9555 28.6345 101.82 28.6345Z" fill="black"/>
<path d="M121.023 9.40466C119.103 9.40466 117.723 10.2447 116.808 11.6097H116.613C116.733 9.80966 116.823 8.27967 116.823 7.06467V2.15967H112.998L112.983 18.2696L112.998 28.3496H116.328L116.613 26.5496H116.718C117.603 27.7646 118.968 28.5296 120.783 28.5296C123.798 28.5296 125.088 25.9346 125.088 20.4146V17.5496C125.088 12.3897 124.503 9.40466 121.023 9.40466ZM121.158 20.4146C121.158 23.8646 120.648 25.9196 119.043 25.9196C118.293 25.9196 117.258 25.5596 116.793 24.8846V13.8597C117.198 12.8097 118.098 12.0447 119.103 12.0447C120.723 12.0447 121.158 14.0097 121.158 17.5946V20.4146Z" fill="black"/>
<path d="M138.989 17.2498C138.989 12.7798 138.539 9.46484 133.394 9.46484C128.549 9.46484 127.469 12.6898 127.469 17.4298V20.6848C127.469 25.3048 128.459 28.6648 133.274 28.6648C137.084 28.6648 139.049 26.7598 138.824 23.0698L135.449 22.8898C135.404 25.1698 134.879 26.0998 133.364 26.0998C131.459 26.0998 131.369 24.2848 131.369 21.5848V20.3248H138.989V17.2498ZM133.304 11.9548C135.134 11.9548 135.269 13.6798 135.269 16.6048V18.1198H131.369V16.6048C131.369 13.7098 131.489 11.9548 133.304 11.9548Z" fill="black"/>
</g>
<defs>
<clipPath id="clip0_36_597">
<rect width="138.978" height="30" fill="white" transform="translate(0.0112305)"/>
</clipPath>
</defs>
</svg>
